<svg xmlns="http://www.w3.org/2000/svg" xmlns:xlink="http://www.w3.org/1999/xlink" width="1080" zoomAndPan="magnify" viewBox="0 0 810 809.999993" height="1080" preserveAspectRatio="xMidYMid meet" version="1.0"><path fill="#e6e7e8" d="M 452.066406 574.964844 L 265.921875 459.207031 C 259.167969 455.003906 257.097656 446.125 261.296875 439.367188 L 469.816406 103.816406 C 474.015625 97.058594 482.894531 94.988281 489.648438 99.1875 L 675.792969 214.945312 C 682.546875 219.144531 684.617188 228.027344 680.417969 234.78125 L 471.894531 570.335938 C 467.699219 577.09375 458.820312 579.164062 452.066406 574.964844 " fill-opacity="1" fill-rule="nonzero"/><path fill="#f5cc23" d="M 452.535156 575.253906 L 442.023438 568.714844 L 665.746094 208.699219 L 676.261719 215.234375 C 682.753906 219.273438 684.746094 227.816406 680.710938 234.316406 L 471.605469 570.804688 C 467.570312 577.300781 459.03125 579.292969 452.535156 575.253906 " fill-opacity="1" fill-rule="nonzero"/><path fill="#e6e7e8" d="M 365.929688 706.710938 L 185.9375 594.78125 C 177.484375 589.523438 174.890625 578.40625 180.148438 569.953125 L 245.488281 464.804688 C 250.742188 456.347656 261.855469 453.753906 270.308594 459.011719 L 450.300781 570.941406 C 458.75 576.199219 461.34375 587.316406 456.089844 595.773438 L 390.75 700.917969 C 385.492188 709.375 374.382812 711.96875 365.929688 706.710938 " fill-opacity="1" fill-rule="nonzero"/><path fill="#f5cc23" d="M 365.808594 706.636719 L 358.960938 702.378906 L 443.332031 566.609375 L 453.765625 573.097656 C 460.304688 577.164062 462.308594 585.761719 458.246094 592.304688 L 390.824219 700.796875 C 385.527344 709.320312 374.328125 711.933594 365.808594 706.636719 " fill-opacity="1" fill-rule="nonzero"/><path fill="#58595b" d="M 590.664062 213.429688 C 609.34375 205.613281 597.003906 196.292969 586.761719 197.222656 C 578.5625 197.96875 570.382812 198.945312 562.199219 199.878906 C 561.285156 199.980469 560.625 199.832031 559.945312 199.164062 C 559.449219 198.671875 554.324219 194.042969 548.128906 188.460938 L 550.460938 185.96875 C 552.105469 184.210938 552.015625 181.449219 550.257812 179.800781 C 548.496094 178.152344 545.734375 178.246094 544.089844 180.003906 L 541.640625 182.621094 C 540.90625 181.964844 540.175781 181.308594 539.453125 180.65625 L 541.945312 177.996094 C 543.589844 176.234375 543.5 173.472656 541.738281 171.828125 C 539.980469 170.179688 537.21875 170.269531 535.574219 172.03125 L 532.960938 174.824219 C 528.863281 171.140625 525.714844 168.316406 524.894531 167.585938 C 523.378906 166.234375 522.1875 165.71875 519.988281 166.066406 C 519.257812 166.183594 512.1875 167.277344 509.1875 167.734375 C 517.792969 180.75 526.28125 193.59375 534.785156 206.457031 C 534.53125 206.59375 508.359375 215.421875 495.367188 219.734375 C 494.964844 219.867188 494.261719 219.667969 493.925781 219.371094 C 490.105469 215.953125 486.328125 212.484375 482.527344 209.046875 C 482.261719 208.804688 481.839844 208.496094 481.554688 208.554688 C 479.707031 208.917969 477.875 209.367188 476.226562 209.746094 C 480.664062 217.363281 486.621094 227.882812 486.621094 227.882812 C 486.621094 227.882812 486.164062 243.097656 485.894531 251.191406 C 487.40625 250.816406 489.054688 250.464844 490.652344 249.964844 C 491.132812 249.816406 491.675781 249.320312 491.867188 248.851562 C 493.753906 244.183594 495.605469 239.492188 497.386719 234.78125 C 497.6875 233.992188 498.0625 233.722656 498.871094 233.617188 C 505.148438 232.800781 532.351562 229.082031 539.863281 228.0625 C 537.90625 243.527344 535.976562 258.785156 534.023438 274.226562 C 538.050781 272.941406 541.792969 271.703125 545.5625 270.566406 C 546.644531 270.242188 547.234375 269.714844 547.640625 268.636719 C 548.214844 267.121094 551.203125 259.621094 554.613281 251.09375 L 560.140625 252.707031 C 562.453125 253.382812 564.875 252.054688 565.550781 249.742188 C 566.222656 247.425781 564.898438 245.003906 562.585938 244.328125 L 557.871094 242.953125 C 558.238281 242.03125 558.605469 241.113281 558.96875 240.210938 L 563.40625 241.507812 C 565.71875 242.183594 568.144531 240.855469 568.816406 238.539062 C 569.492188 236.226562 568.164062 233.804688 565.851562 233.128906 L 562.234375 232.070312 C 563.980469 227.730469 565.332031 224.378906 565.855469 223.097656 C 566.050781 222.621094 566.683594 222.203125 567.207031 222.007812 C 575.019531 219.128906 582.984375 216.644531 590.664062 213.429688 " fill-opacity="1" fill-rule="nonzero"/><path fill="#58595b" d="M 551.964844 338.78125 L 544.007812 333.832031 L 432.25 513.675781 L 440.207031 518.625 Z M 551.964844 338.78125 " fill-opacity="1" fill-rule="evenodd"/><path fill="#58595b" d="M 530.4375 325.390625 L 522.480469 320.441406 L 473.242188 399.679688 L 481.195312 404.628906 Z M 530.4375 325.390625 " fill-opacity="1" fill-rule="evenodd"/><path fill="#58595b" d="M 422.796875 258.453125 L 414.84375 253.503906 L 329.097656 391.484375 L 337.054688 396.433594 Z M 422.796875 258.453125 " fill-opacity="1" fill-rule="evenodd"/><path fill="#24aae1" d="M 670.804688 235.851562 L 661.441406 230.03125 L 611.835938 309.855469 L 621.199219 315.675781 Z M 670.804688 235.851562 " fill-opacity="1" fill-rule="evenodd"/><path fill="#58595b" d="M 284.882812 471.570312 C 284.640625 471.570312 284.398438 471.507812 284.179688 471.371094 L 275.320312 465.863281 C 274.691406 465.472656 274.5 464.644531 274.890625 464.015625 C 275.28125 463.386719 276.109375 463.195312 276.734375 463.585938 L 285.59375 469.09375 C 286.222656 469.484375 286.414062 470.308594 286.023438 470.9375 C 285.769531 471.347656 285.332031 471.570312 284.882812 471.570312 M 302.597656 482.585938 C 302.355469 482.585938 302.109375 482.519531 301.890625 482.382812 L 293.035156 476.875 C 292.40625 476.484375 292.214844 475.660156 292.605469 475.03125 C 292.996094 474.402344 293.820312 474.210938 294.449219 474.601562 L 303.304688 480.109375 C 303.933594 480.5 304.125 481.324219 303.734375 481.953125 C 303.480469 482.363281 303.042969 482.585938 302.597656 482.585938 M 320.308594 493.601562 C 320.070312 493.601562 319.824219 493.535156 319.605469 493.398438 L 310.746094 487.890625 C 310.117188 487.5 309.925781 486.675781 310.316406 486.046875 C 310.707031 485.417969 311.535156 485.226562 312.160156 485.617188 L 321.019531 491.125 C 321.648438 491.515625 321.839844 492.339844 321.449219 492.96875 C 321.195312 493.378906 320.757812 493.601562 320.308594 493.601562 M 338.023438 504.617188 C 337.78125 504.617188 337.539062 504.550781 337.316406 504.414062 L 328.460938 498.90625 C 327.832031 498.515625 327.640625 497.691406 328.03125 497.0625 C 328.421875 496.433594 329.246094 496.242188 329.875 496.632812 L 338.730469 502.140625 C 339.359375 502.53125 339.554688 503.355469 339.164062 503.984375 C 338.910156 504.394531 338.472656 504.617188 338.023438 504.617188 M 355.734375 515.632812 C 355.496094 515.632812 355.25 515.566406 355.03125 515.429688 L 346.171875 509.921875 C 345.546875 509.53125 345.351562 508.707031 345.742188 508.078125 C 346.132812 507.449219 346.960938 507.253906 347.589844 507.648438 L 356.445312 513.15625 C 357.074219 513.546875 357.265625 514.371094 356.875 515 C 356.621094 515.410156 356.183594 515.632812 355.734375 515.632812 M 373.449219 526.648438 C 373.207031 526.648438 372.964844 526.582031 372.742188 526.445312 L 363.886719 520.9375 C 363.257812 520.546875 363.066406 519.722656 363.457031 519.09375 C 363.847656 518.464844 364.671875 518.269531 365.300781 518.660156 L 374.15625 524.167969 C 374.785156 524.558594 374.980469 525.386719 374.589844 526.015625 C 374.335938 526.421875 373.898438 526.648438 373.449219 526.648438 M 391.164062 537.664062 C 390.921875 537.664062 390.675781 537.597656 390.457031 537.460938 L 381.601562 531.953125 C 380.972656 531.5625 380.777344 530.738281 381.167969 530.109375 C 381.558594 529.480469 382.386719 529.285156 383.015625 529.675781 L 391.871094 535.183594 C 392.5 535.574219 392.691406 536.402344 392.300781 537.03125 C 392.046875 537.4375 391.609375 537.664062 391.164062 537.664062 M 408.875 548.679688 C 408.632812 548.679688 408.390625 548.613281 408.167969 548.476562 L 399.3125 542.96875 C 398.683594 542.578125 398.492188 541.75 398.882812 541.125 C 399.273438 540.496094 400.097656 540.300781 400.726562 540.691406 L 409.585938 546.199219 C 410.210938 546.589844 410.40625 547.417969 410.015625 548.046875 C 409.761719 548.453125 409.324219 548.679688 408.875 548.679688 M 426.589844 559.695312 C 426.347656 559.695312 426.101562 559.628906 425.882812 559.492188 L 417.027344 553.984375 C 416.398438 553.59375 416.203125 552.765625 416.59375 552.140625 C 416.984375 551.511719 417.8125 551.316406 418.441406 551.707031 L 427.296875 557.214844 C 427.925781 557.605469 428.117188 558.433594 427.726562 559.0625 C 427.472656 559.46875 427.035156 559.695312 426.589844 559.695312 M 444.300781 570.710938 C 444.058594 570.710938 443.816406 570.644531 443.59375 570.507812 L 434.738281 565 C 434.109375 564.609375 433.917969 563.78125 434.308594 563.152344 C 434.699219 562.527344 435.523438 562.332031 436.152344 562.722656 L 445.011719 568.230469 C 445.640625 568.621094 445.832031 569.449219 445.441406 570.078125 C 445.1875 570.484375 444.75 570.710938 444.300781 570.710938 " fill-opacity="1" fill-rule="nonzero"/><path fill="#58595b" d="M 457.707031 579.046875 C 457.46875 579.046875 457.222656 578.980469 457.003906 578.84375 L 452.453125 576.015625 C 451.824219 575.621094 451.628906 574.796875 452.019531 574.167969 C 452.410156 573.539062 453.238281 573.347656 453.867188 573.738281 L 458.417969 576.566406 C 459.046875 576.957031 459.238281 577.785156 458.847656 578.414062 C 458.59375 578.820312 458.15625 579.046875 457.707031 579.046875 " fill-opacity="1" fill-rule="nonzero"/><path fill="#24aae1" d="M 444.457031 585.972656 L 441.648438 584.226562 L 411.972656 631.976562 L 414.78125 633.722656 Z M 444.457031 585.972656 " fill-opacity="1" fill-rule="evenodd"/><path fill="#24aae1" d="M 450.5625 589.765625 L 447.753906 588.019531 L 433.425781 611.078125 L 436.230469 612.824219 Z M 450.5625 589.765625 " fill-opacity="1" fill-rule="evenodd"/><path fill="#24aae1" d="M 435.210938 614.460938 L 432.40625 612.714844 L 418.074219 635.773438 L 420.882812 637.519531 Z M 435.210938 614.460938 " fill-opacity="1" fill-rule="evenodd"/><path fill="#24aae1" d="M 415.625 645.988281 L 406.710938 640.445312 L 373.738281 693.503906 L 382.652344 699.046875 Z M 415.625 645.988281 " fill-opacity="1" fill-rule="evenodd"/><path fill="#58595b" d="M 386.492188 565.90625 L 378.535156 560.960938 L 338.597656 625.222656 L 346.554688 630.171875 Z M 386.492188 565.90625 " fill-opacity="1" fill-rule="evenodd"/><path fill="#58595b" d="M 364.960938 552.519531 L 357.007812 547.570312 L 294.097656 648.808594 L 302.050781 653.753906 Z M 364.960938 552.519531 " fill-opacity="1" fill-rule="evenodd"/><path fill="#58595b" d="M 343.433594 539.128906 L 335.480469 534.183594 L 272.570312 635.417969 L 280.523438 640.367188 Z M 343.433594 539.128906 " fill-opacity="1" fill-rule="evenodd"/><path fill="#e6e7e8" d="M 511.457031 532.972656 L 293.722656 558.125 C 285.824219 559.039062 278.679688 553.371094 277.769531 545.46875 L 232.460938 152.972656 C 231.546875 145.070312 237.210938 137.921875 245.109375 137.011719 L 462.84375 111.859375 C 470.742188 110.945312 477.886719 116.613281 478.800781 124.515625 L 524.109375 517.011719 C 525.019531 524.914062 519.355469 532.0625 511.457031 532.972656 " fill-opacity="1" fill-rule="nonzero"/><path fill="#24aae1" d="M 512.003906 532.910156 L 499.707031 534.332031 L 451.09375 113.214844 L 463.390625 111.792969 C 470.988281 110.917969 477.855469 116.367188 478.734375 123.964844 L 524.171875 517.558594 C 525.046875 525.160156 519.601562 532.03125 512.003906 532.910156 " fill-opacity="1" fill-rule="nonzero"/><path fill="#e6e7e8" d="M 525.90625 689.734375 L 315.371094 714.054688 C 305.484375 715.199219 296.542969 708.105469 295.402344 698.214844 L 281.203125 575.222656 C 280.0625 565.332031 287.152344 556.386719 297.039062 555.246094 L 507.574219 530.921875 C 517.460938 529.78125 526.402344 536.875 527.542969 546.765625 L 541.742188 669.757812 C 542.882812 679.648438 535.792969 688.589844 525.90625 689.734375 " fill-opacity="1" fill-rule="nonzero"/><path fill="#24aae1" d="M 525.765625 689.75 L 517.757812 690.675781 L 499.425781 531.863281 L 511.628906 530.453125 C 519.277344 529.570312 526.191406 535.058594 527.074219 542.707031 L 541.726562 669.613281 C 542.875 679.582031 535.730469 688.597656 525.765625 689.75 " fill-opacity="1" fill-rule="nonzero"/><path fill="#58595b" d="M 395.234375 163.632812 C 405.003906 145.890625 389.546875 146.269531 382.105469 153.367188 C 376.148438 159.050781 370.351562 164.90625 364.519531 170.726562 C 363.871094 171.375 363.257812 171.671875 362.3125 171.570312 C 361.621094 171.492188 354.726562 171.054688 346.40625 170.539062 L 346.679688 167.136719 C 346.875 164.738281 345.089844 162.628906 342.6875 162.433594 C 340.285156 162.238281 338.179688 164.027344 337.984375 166.429688 L 337.695312 170.003906 C 336.710938 169.945312 335.730469 169.886719 334.761719 169.824219 L 335.054688 166.191406 C 335.25 163.789062 333.460938 161.683594 331.0625 161.488281 C 328.660156 161.292969 326.554688 163.082031 326.359375 165.484375 L 326.050781 169.296875 C 320.550781 168.964844 316.328125 168.710938 315.234375 168.648438 C 313.207031 168.53125 311.953125 168.871094 310.449219 170.511719 C 309.945312 171.058594 305.089844 176.308594 303.027344 178.535156 C 317.855469 183.375 332.484375 188.152344 347.144531 192.933594 C 347.03125 193.199219 332.023438 216.398438 324.53125 227.855469 C 324.296875 228.210938 323.621094 228.492188 323.175781 228.464844 C 318.058594 228.167969 312.945312 227.800781 307.832031 227.472656 C 307.472656 227.449219 306.953125 227.46875 306.761719 227.691406 C 305.539062 229.125 304.386719 230.621094 303.332031 231.941406 C 311.542969 235.144531 322.746094 239.675781 322.746094 239.675781 C 322.746094 239.675781 331.847656 251.875 336.667969 258.382812 C 337.617188 257.144531 338.691406 255.847656 339.632812 254.460938 C 339.914062 254.042969 340.03125 253.320312 339.890625 252.832031 C 338.464844 248.003906 336.996094 243.179688 335.464844 238.382812 C 335.207031 237.578125 335.339844 237.132812 335.902344 236.546875 C 340.3125 232 359.300781 212.167969 364.550781 206.695312 C 372.632812 220.023438 380.609375 233.171875 388.675781 246.480469 C 391.03125 242.964844 393.191406 239.667969 395.4375 236.433594 C 396.082031 235.507812 396.21875 234.726562 395.867188 233.628906 C 395.375 232.085938 393.050781 224.351562 390.417969 215.554688 L 395.75 213.378906 C 397.980469 212.46875 399.054688 209.921875 398.144531 207.691406 C 397.234375 205.460938 394.6875 204.386719 392.457031 205.296875 L 387.910156 207.152344 C 387.625 206.199219 387.34375 205.253906 387.066406 204.320312 L 391.347656 202.574219 C 393.578125 201.664062 394.648438 199.117188 393.742188 196.886719 C 392.832031 194.65625 390.285156 193.582031 388.054688 194.492188 L 384.5625 195.914062 C 383.230469 191.429688 382.207031 187.964844 381.820312 186.636719 C 381.675781 186.144531 381.914062 185.417969 382.203125 184.941406 C 386.527344 177.828125 391.21875 170.925781 395.234375 163.632812 " fill-opacity="1" fill-rule="nonzero"/><path fill="#58595b" d="M 442.859375 285.867188 L 433.554688 286.941406 L 457.839844 497.304688 L 467.144531 496.230469 Z M 442.859375 285.867188 " fill-opacity="1" fill-rule="evenodd"/><path fill="#58595b" d="M 417.679688 288.777344 L 408.375 289.851562 L 419.074219 382.535156 L 428.378906 381.460938 Z M 417.679688 288.777344 " fill-opacity="1" fill-rule="evenodd"/><path fill="#58595b" d="M 367.316406 294.597656 L 358.011719 295.671875 L 373.425781 429.210938 L 382.734375 428.136719 Z M 367.316406 294.597656 " fill-opacity="1" fill-rule="evenodd"/><path fill="#58595b" d="M 342.132812 297.503906 L 332.828125 298.578125 L 357.113281 508.941406 L 366.417969 507.867188 Z M 342.132812 297.503906 " fill-opacity="1" fill-rule="evenodd"/><path fill="#58595b" d="M 316.953125 300.414062 L 307.648438 301.488281 L 331.933594 511.851562 L 341.238281 510.777344 Z M 316.953125 300.414062 " fill-opacity="1" fill-rule="evenodd"/><path fill="#58595b" d="M 291.769531 303.324219 L 282.464844 304.398438 L 301.097656 465.792969 L 310.402344 464.71875 Z M 291.769531 303.324219 " fill-opacity="1" fill-rule="evenodd"/><path fill="#f5cc23" d="M 471.929688 131.335938 L 460.984375 132.597656 L 471.761719 225.96875 L 482.710938 224.703125 Z M 471.929688 131.335938 " fill-opacity="1" fill-rule="evenodd"/><path fill="#58595b" d="M 491.539062 535.957031 C 490.867188 535.957031 490.285156 535.453125 490.207031 534.769531 C 490.125 534.035156 490.648438 533.371094 491.386719 533.285156 L 501.746094 532.089844 C 502.480469 532.003906 503.144531 532.53125 503.230469 533.265625 C 503.3125 534.003906 502.789062 534.667969 502.050781 534.75 L 491.691406 535.949219 C 491.640625 535.953125 491.589844 535.957031 491.539062 535.957031 M 470.816406 538.351562 C 470.148438 538.351562 469.566406 537.847656 469.488281 537.164062 C 469.402344 536.429688 469.929688 535.765625 470.667969 535.679688 L 481.027344 534.480469 C 481.761719 534.398438 482.425781 534.925781 482.511719 535.660156 C 482.59375 536.394531 482.070312 537.058594 481.332031 537.144531 L 470.972656 538.34375 C 470.921875 538.347656 470.871094 538.351562 470.816406 538.351562 M 450.097656 540.746094 C 449.429688 540.746094 448.847656 540.242188 448.769531 539.558594 C 448.683594 538.824219 449.210938 538.15625 449.949219 538.074219 L 460.308594 536.875 C 461.042969 536.792969 461.707031 537.316406 461.792969 538.054688 C 461.875 538.789062 461.347656 539.453125 460.613281 539.539062 L 450.253906 540.734375 C 450.203125 540.742188 450.152344 540.746094 450.097656 540.746094 M 429.378906 543.136719 C 428.710938 543.136719 428.128906 542.632812 428.050781 541.953125 C 427.964844 541.214844 428.492188 540.550781 429.226562 540.464844 L 439.585938 539.269531 C 440.324219 539.183594 440.988281 539.710938 441.074219 540.445312 C 441.15625 541.183594 440.628906 541.847656 439.894531 541.933594 L 429.535156 543.128906 C 429.484375 543.136719 429.429688 543.136719 429.378906 543.136719 M 408.660156 545.53125 C 407.988281 545.53125 407.410156 545.027344 407.332031 544.34375 C 407.246094 543.609375 407.773438 542.945312 408.507812 542.859375 L 418.867188 541.664062 C 419.605469 541.578125 420.269531 542.105469 420.351562 542.839844 C 420.4375 543.574219 419.910156 544.242188 419.175781 544.324219 L 408.816406 545.523438 C 408.765625 545.527344 408.710938 545.53125 408.660156 545.53125 M 387.941406 547.925781 C 387.269531 547.925781 386.691406 547.421875 386.613281 546.738281 C 386.527344 546.003906 387.054688 545.339844 387.789062 545.253906 L 398.148438 544.054688 C 398.882812 543.972656 399.550781 544.5 399.632812 545.234375 C 399.71875 545.96875 399.191406 546.632812 398.457031 546.71875 L 388.097656 547.914062 C 388.046875 547.921875 387.992188 547.925781 387.941406 547.925781 M 367.222656 550.320312 C 366.550781 550.320312 365.972656 549.816406 365.894531 549.132812 C 365.808594 548.398438 366.335938 547.730469 367.070312 547.648438 L 377.429688 546.449219 C 378.164062 546.363281 378.832031 546.890625 378.914062 547.628906 C 379 548.363281 378.472656 549.027344 377.738281 549.113281 L 367.378906 550.308594 C 367.324219 550.316406 367.273438 550.320312 367.222656 550.320312 M 346.503906 552.710938 C 345.832031 552.710938 345.253906 552.207031 345.175781 551.527344 C 345.089844 550.789062 345.617188 550.125 346.351562 550.039062 L 356.710938 548.84375 C 357.449219 548.757812 358.109375 549.285156 358.195312 550.019531 C 358.28125 550.757812 357.753906 551.421875 357.019531 551.507812 L 346.660156 552.703125 C 346.605469 552.710938 346.554688 552.710938 346.503906 552.710938 M 325.785156 555.105469 C 325.113281 555.105469 324.535156 554.601562 324.457031 553.917969 C 324.371094 553.183594 324.898438 552.519531 325.632812 552.433594 L 335.992188 551.238281 C 336.726562 551.152344 337.390625 551.679688 337.476562 552.414062 C 337.5625 553.148438 337.035156 553.816406 336.300781 553.898438 L 325.941406 555.097656 C 325.886719 555.101562 325.835938 555.105469 325.785156 555.105469 M 305.066406 557.5 C 304.394531 557.5 303.816406 556.996094 303.738281 556.3125 C 303.652344 555.578125 304.179688 554.914062 304.914062 554.828125 L 315.273438 553.628906 C 316.007812 553.546875 316.671875 554.074219 316.757812 554.808594 C 316.84375 555.542969 316.316406 556.207031 315.582031 556.292969 L 305.222656 557.488281 C 305.167969 557.496094 305.117188 557.5 305.066406 557.5 " fill-opacity="1" fill-rule="nonzero"/><path fill="#58595b" d="M 512.253906 533.566406 C 511.585938 533.566406 511.003906 533.0625 510.925781 532.378906 C 510.839844 531.644531 511.367188 530.980469 512.101562 530.894531 L 517.425781 530.277344 C 518.164062 530.195312 518.828125 530.722656 518.910156 531.457031 C 518.996094 532.191406 518.46875 532.855469 517.734375 532.941406 L 512.410156 533.558594 C 512.359375 533.5625 512.304688 533.566406 512.253906 533.566406 " fill-opacity="1" fill-rule="nonzero"/><path fill="#f5cc23" d="M 512.335938 546.328125 L 509.054688 546.707031 L 515.503906 602.5625 L 518.789062 602.183594 Z M 512.335938 546.328125 " fill-opacity="1" fill-rule="evenodd"/><path fill="#f5cc23" d="M 519.480469 545.503906 L 516.195312 545.882812 L 519.308594 572.851562 L 522.59375 572.472656 Z M 519.480469 545.503906 " fill-opacity="1" fill-rule="evenodd"/><path fill="#f5cc23" d="M 522.816406 574.390625 L 519.53125 574.769531 L 522.644531 601.742188 L 525.929688 601.363281 Z M 522.816406 574.390625 " fill-opacity="1" fill-rule="evenodd"/><path fill="#f5cc23" d="M 527.070312 611.261719 L 516.648438 612.464844 L 523.8125 674.53125 L 534.238281 673.324219 Z M 527.070312 611.261719 " fill-opacity="1" fill-rule="evenodd"/><path fill="#58595b" d="M 454.476562 566.675781 L 445.171875 567.75 L 453.847656 642.921875 L 463.152344 641.847656 Z M 454.476562 566.675781 " fill-opacity="1" fill-rule="evenodd"/><path fill="#58595b" d="M 429.292969 569.585938 L 419.988281 570.664062 L 433.660156 689.078125 L 442.964844 688.003906 Z M 429.292969 569.585938 " fill-opacity="1" fill-rule="evenodd"/><path fill="#58595b" d="M 404.113281 572.496094 L 394.808594 573.570312 L 408.476562 691.988281 L 417.785156 690.910156 Z M 404.113281 572.496094 " fill-opacity="1" fill-rule="evenodd"/><path fill="#58595b" d="M 378.929688 575.402344 L 369.625 576.480469 L 380.113281 667.332031 L 389.417969 666.253906 Z M 378.929688 575.402344 " fill-opacity="1" fill-rule="evenodd"/><path fill="#1c355b" d="M 380.183594 672.679688 L 96.296875 646.378906 C 87.484375 645.5625 81 637.753906 81.816406 628.9375 L 115.375 266.472656 C 116.191406 257.65625 123.996094 251.171875 132.808594 251.988281 L 416.699219 278.289062 C 432.472656 279.75 444.070312 293.726562 442.613281 309.5 L 411.386719 646.761719 C 409.925781 662.539062 395.957031 674.140625 380.183594 672.679688 " fill-opacity="1" fill-rule="nonzero"/><path fill="#f5cc23" d="M 173.371094 302.371094 L 187.914062 304 C 192.578125 304.519531 194.738281 306.3125 194.398438 309.375 L 193.496094 317.433594 C 193.152344 320.523438 190.648438 321.808594 185.984375 321.289062 L 179.324219 320.542969 L 178.285156 329.8125 L 170.402344 328.933594 Z M 185.648438 315.753906 L 186.367188 309.324219 C 186.441406 308.628906 186 308.222656 185.039062 308.117188 L 180.765625 307.640625 L 179.8125 316.15625 L 184.085938 316.636719 C 185.050781 316.742188 185.570312 316.449219 185.648438 315.753906 Z M 185.648438 315.753906 " fill-opacity="1" fill-rule="nonzero"/><path fill="#f5cc23" d="M 212.929688 333.683594 L 212.246094 328.746094 L 204.195312 327.847656 L 202.4375 332.511719 L 194.609375 331.636719 L 205.570312 305.972656 L 215.675781 307.101562 L 220.925781 334.578125 Z M 205.792969 323.628906 L 211.5625 324.273438 L 209.929688 312.71875 Z M 205.792969 323.628906 " fill-opacity="1" fill-rule="nonzero"/><path fill="#f5cc23" d="M 237.628906 330.949219 L 238.167969 326.148438 C 238.207031 325.789062 238.125 325.515625 237.921875 325.339844 C 237.714844 325.160156 237.335938 325.039062 236.777344 324.976562 L 231.894531 324.433594 C 227.527344 323.945312 225.515625 322.140625 225.863281 319.023438 L 226.539062 312.96875 C 226.882812 309.90625 229.390625 308.636719 234.050781 309.15625 L 240.824219 309.914062 C 245.484375 310.433594 247.648438 312.226562 247.308594 315.289062 L 246.921875 318.757812 L 238.980469 317.867188 L 239.273438 315.238281 C 239.351562 314.542969 238.890625 314.136719 237.894531 314.023438 L 236.003906 313.8125 C 235.003906 313.703125 234.464844 313.996094 234.390625 314.691406 L 233.867188 319.367188 C 233.824219 319.730469 233.90625 320 234.113281 320.179688 C 234.316406 320.355469 234.699219 320.476562 235.25 320.539062 L 240.027344 321.070312 C 242.394531 321.335938 244.054688 321.910156 245.003906 322.789062 C 245.957031 323.671875 246.347656 324.863281 246.179688 326.367188 L 245.480469 332.632812 C 245.136719 335.722656 242.632812 337.003906 237.96875 336.484375 L 231.25 335.734375 C 226.550781 335.207031 224.371094 333.398438 224.71875 330.308594 L 225.097656 326.886719 L 233.039062 327.773438 L 232.742188 330.402344 C 232.667969 331.097656 233.128906 331.503906 234.128906 331.617188 L 236.015625 331.828125 C 237.015625 331.9375 237.554688 331.644531 237.628906 330.949219 Z M 237.628906 330.949219 " fill-opacity="1" fill-rule="nonzero"/><path fill="#f5cc23" d="M 263.28125 333.816406 L 263.816406 329.015625 C 263.859375 328.65625 263.773438 328.382812 263.566406 328.207031 C 263.363281 328.027344 262.984375 327.90625 262.429688 327.84375 L 257.542969 327.296875 C 253.175781 326.808594 251.167969 325.007812 251.515625 321.890625 L 252.191406 315.835938 C 252.53125 312.773438 255.035156 311.5 259.699219 312.023438 L 266.472656 312.78125 C 271.136719 313.300781 273.296875 315.09375 272.953125 318.15625 L 272.566406 321.625 L 264.628906 320.734375 L 264.921875 318.105469 C 265 317.410156 264.539062 317.003906 263.539062 316.890625 L 261.652344 316.679688 C 260.65625 316.570312 260.113281 316.863281 260.035156 317.558594 L 259.511719 322.234375 C 259.472656 322.597656 259.554688 322.867188 259.757812 323.046875 C 259.964844 323.222656 260.34375 323.34375 260.902344 323.40625 L 265.675781 323.9375 C 268.046875 324.203125 269.703125 324.777344 270.65625 325.65625 C 271.605469 326.539062 272 327.730469 271.832031 329.234375 L 271.128906 335.5 C 270.785156 338.589844 268.28125 339.871094 263.617188 339.351562 L 256.898438 338.601562 C 252.199219 338.074219 250.023438 336.269531 250.367188 333.175781 L 250.75 329.753906 L 258.6875 330.640625 L 258.394531 333.269531 C 258.316406 333.964844 258.777344 334.371094 259.777344 334.484375 L 261.664062 334.695312 C 262.664062 334.804688 263.203125 334.511719 263.28125 333.816406 Z M 263.28125 333.816406 " fill-opacity="1" fill-rule="nonzero"/><path fill="#f5cc23" d="M 279.019531 314.183594 L 293.566406 315.808594 C 298.230469 316.328125 300.390625 318.121094 300.046875 321.1875 L 299.148438 329.242188 C 298.800781 332.335938 296.296875 333.617188 291.632812 333.097656 L 284.972656 332.351562 L 283.9375 341.621094 L 276.054688 340.742188 Z M 291.296875 327.5625 L 292.015625 321.132812 C 292.09375 320.4375 291.652344 320.035156 290.6875 319.925781 L 286.414062 319.449219 L 285.460938 327.96875 L 289.734375 328.445312 C 290.699219 328.554688 291.21875 328.257812 291.296875 327.5625 Z M 291.296875 327.5625 " fill-opacity="1" fill-rule="nonzero"/><path fill="#f5cc23" d="M 312.277344 317.898438 L 319.714844 318.730469 C 324.378906 319.253906 326.539062 321.046875 326.195312 324.109375 L 324.261719 341.4375 C 323.914062 344.527344 321.410156 345.8125 316.75 345.289062 L 309.308594 344.460938 C 304.609375 343.933594 302.429688 342.125 302.773438 339.035156 L 304.710938 321.707031 C 305.050781 318.644531 307.574219 317.375 312.277344 317.898438 Z M 316.410156 339.757812 L 318.164062 324.054688 C 318.242188 323.359375 317.800781 322.957031 316.835938 322.847656 L 314.171875 322.550781 C 313.175781 322.441406 312.632812 322.734375 312.554688 323.429688 L 310.800781 339.128906 C 310.722656 339.824219 311.1875 340.230469 312.183594 340.339844 L 314.847656 340.640625 C 315.8125 340.746094 316.332031 340.453125 316.410156 339.757812 Z M 316.410156 339.757812 " fill-opacity="1" fill-rule="nonzero"/><path fill="#f5cc23" d="M 338.621094 337.671875 L 337.511719 347.613281 L 329.628906 346.730469 L 332.59375 320.171875 L 347.140625 321.796875 C 351.804688 322.320312 353.964844 324.109375 353.621094 327.175781 L 352.792969 334.605469 C 352.519531 337.054688 350.875 338.367188 347.855469 338.535156 L 352.941406 349.335938 L 344.453125 348.386719 L 340.007812 337.828125 Z M 339.988281 325.4375 L 339.09375 333.457031 L 343.367188 333.933594 C 343.882812 333.992188 344.261719 333.957031 344.503906 333.828125 C 344.742188 333.699219 344.882812 333.457031 344.921875 333.09375 L 345.589844 327.121094 C 345.667969 326.425781 345.226562 326.023438 344.261719 325.914062 Z M 339.988281 325.4375 " fill-opacity="1" fill-rule="nonzero"/><path fill="#f5cc23" d="M 378.398438 325.292969 L 377.90625 329.675781 L 371.410156 328.949219 L 368.933594 351.125 L 360.992188 350.238281 L 363.46875 328.0625 L 357.03125 327.34375 L 357.523438 322.957031 Z M 378.398438 325.292969 " fill-opacity="1" fill-rule="nonzero"/><path fill="#58595b" d="M 267.167969 460.554688 C 266.929688 460.554688 266.683594 460.488281 266.464844 460.351562 L 261.914062 457.519531 C 261.285156 457.128906 261.089844 456.304688 261.480469 455.675781 C 261.871094 455.046875 262.699219 454.855469 263.328125 455.246094 L 267.878906 458.074219 C 268.507812 458.464844 268.699219 459.292969 268.308594 459.921875 C 268.054688 460.328125 267.617188 460.554688 267.167969 460.554688 " fill-opacity="1" fill-rule="nonzero"/><path fill="#f5cc23" d="M 256.042969 403.394531 C 254.082031 403.394531 252.117188 403.464844 250.175781 403.601562 C 224.863281 405.398438 201.316406 419.136719 187.183594 440.351562 C 179.625 451.695312 174.964844 464.917969 173.699219 478.582031 C 170.59375 512.125 187.851562 543.917969 217.667969 559.578125 C 227.25 564.613281 237.625 567.675781 248.5 568.683594 C 263.015625 570.027344 277.640625 567.523438 290.792969 561.441406 C 317.546875 549.078125 335.851562 523.179688 338.566406 493.855469 L 340.96875 494.078125 L 338.566406 493.855469 C 341.839844 458.492188 322.292969 425.054688 289.914062 410.585938 L 289.75 410.511719 C 286.429688 409.035156 282.984375 407.773438 279.511719 406.753906 C 275.761719 405.65625 271.882812 404.8125 267.984375 404.25 C 266.582031 404.050781 265.164062 403.882812 263.769531 403.753906 C 262.320312 403.621094 260.847656 403.523438 259.394531 403.464844 C 258.28125 403.417969 257.164062 403.394531 256.042969 403.394531 M 256.15625 573.863281 C 253.457031 573.863281 250.753906 573.738281 248.054688 573.488281 C 236.546875 572.421875 225.570312 569.179688 215.425781 563.851562 C 200.242188 555.875 187.808594 543.703125 179.464844 528.648438 C 170.917969 513.230469 167.265625 495.761719 168.894531 478.136719 C 170.234375 463.675781 175.171875 449.683594 183.171875 437.675781 C 190.476562 426.707031 200.347656 417.367188 211.71875 410.664062 C 223.292969 403.84375 236.472656 399.738281 249.832031 398.789062 C 253.0625 398.5625 256.347656 398.511719 259.589844 398.644531 C 261.125 398.703125 262.679688 398.808594 264.214844 398.949219 C 265.6875 399.085938 267.1875 399.261719 268.667969 399.476562 C 272.796875 400.070312 276.898438 400.960938 280.867188 402.125 C 284.421875 403.167969 287.953125 404.453125 291.363281 405.949219 L 291.367188 405.949219 L 291.707031 406.101562 C 308.316406 413.480469 322.042969 425.671875 331.402344 441.355469 C 340.957031 457.367188 345.09375 475.675781 343.371094 494.300781 C 341.929688 509.882812 336.355469 524.789062 327.261719 537.410156 C 318.433594 549.664062 306.523438 559.488281 292.816406 565.820312 C 281.34375 571.128906 268.808594 573.863281 256.15625 573.863281 " fill-opacity="1" fill-rule="nonzero"/><path fill="#f5cc23" d="M 259.636719 449.945312 C 258.949219 449.214844 257.917969 448.714844 256.945312 448.964844 C 255.515625 449.328125 254.929688 451 254.566406 452.429688 C 254.027344 454.574219 253.503906 456.929688 254.457031 458.925781 C 255.179688 460.4375 256.734375 461.78125 256.398438 463.421875 C 256.25 464.144531 255.75 464.730469 255.410156 465.382812 C 255.070312 466.035156 254.914062 466.910156 255.410156 467.453125 C 255.960938 468.0625 256.996094 467.878906 257.664062 467.394531 C 258.332031 466.914062 258.816406 466.203125 259.503906 465.75 C 260.109375 465.347656 260.886719 465.164062 261.585938 465.367188 C 262.285156 465.570312 262.871094 466.195312 262.925781 466.921875 C 262.980469 467.648438 262.417969 468.398438 261.695312 468.460938 C 261.078125 468.515625 260.433594 468.117188 259.859375 468.359375 C 259.082031 468.691406 259.171875 469.808594 259.394531 470.625 C 259.714844 471.808594 260.066406 473.042969 260.898438 473.941406 C 261.734375 474.835938 263.214844 475.261719 264.207031 474.539062 C 264.65625 474.214844 265.007812 473.667969 265.5625 473.617188 C 266.363281 473.539062 266.828125 474.6875 266.414062 475.375 C 265.996094 476.066406 265.109375 476.308594 264.304688 476.335938 C 263.496094 476.359375 262.675781 476.230469 261.894531 476.433594 C 261.113281 476.636719 260.363281 477.320312 260.457031 478.121094 C 260.539062 478.8125 261.203125 479.289062 261.847656 479.550781 C 262.496094 479.816406 263.214844 479.972656 263.734375 480.4375 C 264.832031 481.410156 264.628906 483.296875 265.679688 484.320312 C 266.8125 485.421875 268.875 484.832031 269.769531 483.53125 C 270.667969 482.226562 270.691406 480.523438 270.554688 478.949219 C 270.277344 475.738281 269.464844 472.601562 268.65625 469.484375 C 268.160156 467.5625 267.628906 465.574219 266.363281 464.046875 C 265.1875 462.628906 263.503906 461.757812 262.011719 460.675781 C 261.109375 460.019531 260.242188 459.238281 259.664062 458.273438 C 258.871094 456.953125 259.210938 456.71875 259.976562 455.636719 C 261.144531 453.976562 261.039062 451.433594 259.636719 449.945312 " fill-opacity="1" fill-rule="nonzero"/><path fill="#f5cc23" d="M 250.179688 472.511719 C 249.714844 472.855469 249.214844 473.167969 248.863281 473.625 C 248.511719 474.082031 248.339844 474.734375 248.613281 475.242188 C 248.929688 475.820312 249.722656 475.996094 250.347656 475.792969 C 250.976562 475.589844 251.464844 475.101562 251.902344 474.609375 C 252.742188 473.660156 253.484375 472.625 254.113281 471.523438 C 254.65625 470.574219 254.710938 468.28125 253.148438 469.417969 C 252.035156 470.222656 251.34375 471.65625 250.179688 472.511719 " fill-opacity="1" fill-rule="nonzero"/><path fill="#f5cc23" d="M 247.105469 479.164062 C 247.339844 478.839844 247.625 478.484375 248.023438 478.460938 C 248.519531 478.429688 248.875 478.910156 249.132812 479.332031 C 249.917969 480.636719 250.707031 481.9375 251.492188 483.242188 C 251.902344 483.917969 252.324219 484.710938 252.0625 485.453125 C 251.617188 486.71875 249.652344 486.734375 248.996094 487.902344 C 248.472656 488.839844 249.046875 489.996094 249.679688 490.859375 C 250.316406 491.722656 251.066406 492.683594 250.882812 493.738281 C 250.722656 494.644531 249.925781 495.273438 249.277344 495.925781 C 248.257812 496.957031 247.511719 498.222656 246.777344 499.472656 C 245.902344 500.964844 245.023438 502.460938 244.296875 504.035156 C 243.988281 504.707031 243.699219 505.398438 243.242188 505.980469 C 242.785156 506.5625 242.113281 507.023438 241.375 507.042969 C 239.507812 507.089844 238.574219 504.527344 236.75 504.121094 C 235.492188 503.839844 234.183594 504.679688 232.929688 504.378906 C 231.539062 504.046875 230.859375 502.511719 230.375 501.164062 C 229.777344 499.5 229.179688 497.828125 228.816406 496.097656 C 228.523438 494.710938 228.382812 493.289062 228.402344 491.871094 C 228.414062 490.878906 228.746094 489.617188 229.734375 489.515625 C 230.5 489.433594 231.09375 490.148438 231.808594 490.4375 C 232.898438 490.875 234.109375 490.289062 235.117188 489.6875 C 237.613281 488.191406 240 486.507812 242.242188 484.652344 C 244.234375 483.007812 245.582031 481.265625 247.105469 479.164062 " fill-opacity="1" fill-rule="nonzero"/><path fill="#f5cc23" d="M 198.628906 477.492188 C 198.308594 477.332031 197.953125 477.167969 197.609375 477.273438 C 197.195312 477.394531 196.980469 477.882812 197.023438 478.3125 C 197.0625 478.742188 197.296875 479.128906 197.523438 479.496094 C 200.648438 484.574219 203.777344 489.648438 206.902344 494.726562 C 208.4375 497.21875 209.972656 499.710938 211.503906 502.199219 L 214.636719 507.285156 C 215.042969 507.949219 215.460938 508.621094 216.054688 509.125 C 216.644531 509.625 217.453125 509.941406 218.207031 509.753906 C 218.925781 509.578125 219.480469 508.980469 219.789062 508.304688 C 220.097656 507.632812 220.195312 506.886719 220.289062 506.152344 C 220.476562 504.679688 220.636719 503.109375 219.96875 501.785156 C 219.339844 500.535156 218.078125 499.738281 217.210938 498.636719 C 216.046875 497.148438 215.671875 495.203125 214.816406 493.519531 C 214.070312 492.058594 212.972656 490.8125 211.886719 489.585938 C 209.808594 487.238281 207.726562 484.886719 205.648438 482.535156 C 204.757812 481.53125 203.90625 480.277344 202.78125 479.578125 C 201.488281 478.769531 199.992188 478.179688 198.628906 477.492188 " fill-opacity="1" fill-rule="nonzero"/><path fill="#f5cc23" d="M 221.058594 510.160156 C 220.03125 510.519531 219.277344 511.707031 219.636719 512.738281 C 219.972656 513.703125 221.046875 514.164062 222.003906 514.511719 C 224.886719 515.570312 227.769531 516.625 230.65625 517.679688 C 233.980469 518.894531 237.386719 520.128906 240.929688 520.167969 C 241.414062 520.171875 241.917969 520.152344 242.351562 519.933594 C 242.785156 519.71875 243.136719 519.261719 243.082031 518.78125 C 243.003906 518.109375 242.261719 517.757812 241.625 517.535156 C 237.53125 516.078125 233.433594 514.578125 229.265625 513.34375 C 228.085938 512.996094 226.820312 512.871094 225.792969 512.152344 C 224.339844 511.128906 223.097656 509.449219 221.058594 510.160156 " fill-opacity="1" fill-rule="nonzero"/><path fill="#f5cc23" d="M 260.316406 494.980469 C 259.46875 494.558594 258.585938 494.125 257.640625 494.101562 C 256.308594 494.074219 255.074219 494.902344 254.269531 495.964844 C 253.464844 497.027344 253.015625 498.308594 252.578125 499.570312 C 251.945312 501.394531 251.3125 503.222656 250.679688 505.046875 C 250.546875 505.433594 250.410156 505.851562 250.511719 506.25 C 250.675781 506.882812 251.367188 507.222656 251.691406 507.789062 C 252.0625 508.433594 251.902344 509.246094 251.667969 509.953125 C 251.433594 510.65625 251.132812 511.386719 251.261719 512.121094 C 251.394531 512.851562 252.191406 513.519531 252.863281 513.199219 C 253.421875 512.933594 253.542969 512.203125 253.59375 511.585938 C 253.714844 510.097656 253.835938 508.609375 253.957031 507.121094 C 255.339844 508.523438 256.722656 509.929688 258.105469 511.335938 C 259.042969 510.800781 259.203125 509.476562 258.890625 508.4375 C 258.582031 507.402344 257.929688 506.496094 257.609375 505.464844 C 257.289062 504.433594 257.421875 503.113281 258.34375 502.546875 C 258.722656 502.3125 259.179688 502.246094 259.597656 502.089844 C 260.019531 501.933594 260.4375 501.628906 260.5 501.1875 C 260.589844 500.566406 259.890625 500.070312 259.265625 500.097656 C 258.640625 500.125 258.085938 500.492188 257.546875 500.808594 C 257.003906 501.125 256.375 501.40625 255.769531 501.246094 C 254.867188 501.003906 254.480469 499.800781 254.878906 498.957031 C 255.28125 498.113281 256.234375 497.648438 257.164062 497.5625 C 258.089844 497.476562 259.015625 497.703125 259.929688 497.90625 C 260.839844 498.109375 261.78125 498.292969 262.699219 498.117188 C 263.34375 497.992188 266.695312 495.585938 265.5 494.84375 C 265.21875 494.667969 263.820312 495.679688 263.460938 495.753906 C 262.363281 495.980469 261.273438 495.453125 260.316406 494.980469 " fill-opacity="1" fill-rule="nonzero"/><path fill="#f5cc23" d="M 315.234375 530.960938 C 313.777344 528.945312 312.269531 526.964844 310.714844 525.023438 C 309.761719 523.832031 308.46875 522.53125 306.96875 522.828125 C 304.921875 523.230469 304.34375 526.273438 302.324219 526.8125 C 300.832031 527.214844 299.421875 526.039062 298.324219 524.953125 C 297.222656 523.863281 295.820312 522.683594 294.324219 523.070312 C 293.710938 523.230469 293.175781 523.648438 292.550781 523.753906 C 291.925781 523.863281 291.125 523.421875 291.25 522.800781 C 291.355469 522.289062 291.964844 522.097656 292.441406 521.894531 C 293.765625 521.324219 294.667969 519.894531 294.613281 518.457031 C 294.558594 517.015625 293.546875 515.660156 292.183594 515.195312 C 290.644531 514.671875 289.175781 513.632812 287.65625 513.058594 C 285.839844 512.367188 283.824219 511.167969 282.71875 509.566406 C 282.113281 508.6875 281.667969 507.710938 281.226562 506.742188 C 280.648438 505.480469 280.074219 504.21875 279.5 502.957031 C 279.214844 502.332031 278.925781 501.601562 279.226562 500.980469 C 279.691406 500.007812 281.097656 500.117188 282.140625 500.410156 C 283.222656 500.714844 284.316406 501.058594 285.234375 501.710938 C 286.148438 502.367188 286.867188 503.390625 286.886719 504.515625 C 286.90625 505.410156 286.488281 506.25 286.324219 507.128906 C 286.15625 508.007812 286.351562 509.101562 287.167969 509.46875 C 287.914062 509.804688 288.792969 509.359375 289.351562 508.761719 C 289.910156 508.167969 290.296875 507.414062 290.921875 506.886719 C 292.359375 505.664062 294.53125 505.992188 296.328125 506.570312 C 298.6875 507.324219 300.941406 508.386719 303.089844 509.621094 C 307.785156 512.316406 311.996094 515.847656 315.476562 519.996094 C 315.871094 520.46875 316.273438 521.136719 315.9375 521.65625 C 315.792969 521.878906 315.539062 522.007812 315.332031 522.175781 C 314.574219 522.792969 314.488281 523.96875 314.878906 524.867188 C 315.265625 525.761719 316.015625 526.441406 316.757812 527.078125 C 317.496094 527.714844 318.265625 528.363281 318.714844 529.230469 C 319.046875 529.875 319.175781 530.65625 318.929688 531.339844 C 318.683594 532.023438 318.003906 532.566406 317.277344 532.535156 C 316.554688 532.5 315.097656 531.671875 315.234375 530.960938 " fill-opacity="1" fill-rule="nonzero"/><path fill="#f5cc23" d="M 271.558594 496.964844 C 271.417969 497.914062 271.277344 498.867188 271.136719 499.816406 C 271.085938 500.160156 271.089844 500.605469 271.410156 500.742188 C 271.710938 500.871094 272.046875 500.582031 272.132812 500.265625 C 272.21875 499.949219 272.15625 499.613281 272.1875 499.289062 C 272.21875 498.960938 272.40625 498.601562 272.734375 498.566406 C 273.058594 498.527344 273.3125 498.828125 273.511719 499.085938 C 273.714844 499.34375 274.011719 499.621094 274.324219 499.523438 C 274.609375 499.4375 274.722656 499.066406 274.640625 498.777344 C 274.558594 498.488281 274.347656 498.261719 274.15625 498.027344 C 273.964844 497.796875 273.785156 497.523438 273.796875 497.226562 C 273.828125 496.464844 274.851562 496.148438 275.054688 495.421875 C 275.238281 494.753906 274.933594 493.960938 274.304688 493.648438 C 272.414062 492.695312 271.738281 495.753906 271.558594 496.964844 " fill-opacity="1" fill-rule="nonzero"/><path fill="#f5cc23" d="M 246.980469 518.527344 C 247.59375 518.578125 248.152344 518.878906 248.691406 519.171875 C 249.164062 519.429688 249.636719 519.6875 250.109375 519.945312 C 250.238281 520.015625 250.375 520.09375 250.433594 520.226562 C 250.515625 520.40625 250.414062 520.628906 250.257812 520.75 C 250.101562 520.871094 249.898438 520.914062 249.703125 520.957031 C 249.160156 521.074219 248.613281 521.191406 248.070312 521.308594 C 247.507812 521.425781 246.933594 521.546875 246.367188 521.464844 C 244.128906 521.140625 245.011719 518.378906 246.980469 518.527344 " fill-opacity="1" fill-rule="nonzero"/><path fill="#f5cc23" d="M 243.371094 515.910156 C 243.65625 516.054688 243.96875 516.3125 243.898438 516.625 C 243.820312 516.976562 243.363281 517.042969 243.003906 517.039062 C 242.34375 517.027344 240.253906 516.992188 240.660156 515.855469 C 241.035156 514.820312 242.773438 515.605469 243.371094 515.910156 " fill-opacity="1" fill-rule="nonzero"/><path fill="#f5cc23" d="M 254.472656 519.710938 C 254.953125 519.644531 255.441406 519.746094 255.914062 519.847656 C 257.058594 520.085938 258.203125 520.324219 259.34375 520.566406 C 259.691406 520.636719 260.070312 520.734375 260.261719 521.03125 C 260.5 521.398438 260.308594 521.921875 259.960938 522.183594 C 259.613281 522.445312 259.15625 522.511719 258.71875 522.542969 C 257.15625 522.660156 255.574219 522.46875 254.082031 521.984375 C 252.34375 521.421875 252.859375 519.925781 254.472656 519.710938 " fill-opacity="1" fill-rule="nonzero"/><path fill="#f5cc23" d="M 249.210938 522.8125 C 248.898438 523.273438 249.292969 523.878906 249.691406 524.261719 C 249.742188 524.3125 249.792969 524.359375 249.84375 524.40625 C 250.378906 524.90625 250.964844 525.351562 251.589844 525.738281 C 253.058594 526.644531 253.421875 525.367188 252.71875 524.308594 C 252.246094 523.597656 250.035156 521.582031 249.210938 522.8125 " fill-opacity="1" fill-rule="nonzero"/><path fill="#f5cc23" d="M 262.511719 522.59375 C 261.222656 523.945312 259.566406 524.945312 257.769531 525.460938 C 257.46875 525.546875 257.160156 525.621094 256.902344 525.804688 C 256.648438 525.984375 256.460938 526.300781 256.535156 526.605469 C 256.613281 526.941406 256.992188 527.144531 257.339844 527.140625 C 257.6875 527.136719 258.011719 526.976562 258.324219 526.820312 C 260.878906 525.550781 263.433594 524.28125 265.988281 523.011719 C 267.085938 522.464844 269.453125 520.222656 267.152344 519.484375 C 265.246094 518.871094 263.578125 521.476562 262.511719 522.59375 " fill-opacity="1" fill-rule="nonzero"/><path fill="#f5cc23" d="M 271.996094 520.757812 C 272.210938 521.511719 273.054688 521.898438 273.824219 522.039062 C 274.824219 522.21875 275.863281 522.160156 276.835938 521.863281 C 278.304688 521.417969 279.988281 518.636719 277.476562 518.757812 C 276.949219 518.785156 272.203125 521.492188 271.996094 520.757812 " fill-opacity="1" fill-rule="nonzero"/><path fill="#f5cc23" d="M 286.171875 518.007812 C 286.226562 517.53125 286.125 517.046875 285.988281 516.585938 C 285.679688 515.558594 285.191406 514.585938 284.546875 513.730469 C 284.234375 513.316406 283.746094 512.890625 283.261719 513.074219 C 282.625 513.320312 282.75 514.296875 282.320312 514.828125 C 282.039062 515.171875 281.570312 515.273438 281.148438 515.394531 C 280.722656 515.515625 280.257812 515.71875 280.113281 516.136719 C 279.777344 517.078125 280.933594 517.445312 281.621094 517.398438 C 282.445312 517.339844 282.726562 516.914062 283.339844 517.59375 C 283.8125 518.121094 283.707031 519.066406 284.492188 519.355469 C 285.386719 519.679688 286.085938 518.8125 286.171875 518.007812 " fill-opacity="1" fill-rule="nonzero"/><path fill="#f5cc23" d="M 270.558594 508.285156 C 270.292969 508.609375 270.058594 509.050781 270.234375 509.433594 C 270.367188 509.726562 270.703125 509.878906 271.023438 509.894531 C 271.339844 509.914062 271.65625 509.824219 271.96875 509.761719 C 273.4375 509.46875 275.015625 509.753906 276.285156 510.546875 C 276.601562 510.742188 276.902344 510.96875 277.246094 511.101562 C 277.59375 511.234375 278.007812 511.257812 278.316406 511.050781 C 278.777344 510.742188 278.8125 510.070312 278.683594 509.53125 C 277.792969 505.84375 272.695312 505.679688 270.558594 508.285156 " fill-opacity="1" fill-rule="nonzero"/><path fill="#f5cc23" d="M 266.109375 508.058594 C 265.933594 508.355469 265.925781 508.761719 266.140625 509.03125 C 266.351562 509.300781 266.714844 509.386719 267.050781 509.453125 C 267.382812 509.519531 267.746094 509.578125 268.042969 509.414062 C 268.675781 509.070312 268.5625 507.96875 268.042969 507.5625 C 267.5 507.140625 266.429688 507.511719 266.109375 508.058594 " fill-opacity="1" fill-rule="nonzero"/><path fill="#f5cc23" d="M 291.808594 563.632812 C 278.644531 569.71875 263.753906 572.519531 248.277344 571.085938 C 236.832031 570.027344 226.128906 566.746094 216.546875 561.714844 C 218.765625 560.65625 220.976562 559.585938 223.171875 558.457031 C 228.441406 555.742188 233.617188 552.664062 238.332031 548.730469 C 242.351562 545.371094 246.488281 541.199219 251.339844 541.273438 C 253.890625 541.3125 256.269531 542.554688 258.566406 543.777344 C 261.984375 545.59375 265.398438 547.40625 268.8125 549.222656 C 270.902344 550.332031 272.992188 551.441406 275.0625 552.609375 C 280.839844 555.863281 286.433594 559.546875 291.808594 563.632812 " fill-opacity="1" fill-rule="nonzero"/><path fill="#f5cc23" d="M 255.054688 416.957031 C 255.601562 420.339844 254.855469 423.929688 253.472656 427.0625 C 251.757812 430.9375 248.828125 434.261719 245.203125 436.449219 C 241.578125 438.640625 237.273438 439.6875 233.046875 439.402344 C 230.976562 439.261719 228.71875 439.070312 226.882812 438.105469 C 227.613281 438.769531 228.347656 439.429688 229.078125 440.09375 C 227.554688 439.585938 225.800781 439.820312 224.46875 440.710938 C 223.132812 441.605469 222.246094 443.132812 222.136719 444.734375 C 222 446.699219 222.972656 448.589844 224.230469 450.101562 C 225.488281 451.613281 227.039062 452.855469 228.371094 454.304688 C 229.660156 455.703125 230.75 457.324219 231.300781 459.144531 C 231.851562 460.964844 231.820312 463.003906 230.972656 464.703125 C 230.066406 466.523438 228.347656 467.78125 226.691406 468.964844 C 225.257812 469.992188 223.824219 471.015625 222.386719 472.042969 C 221.703125 472.535156 220.875 473.046875 220.074219 472.789062 C 219.140625 472.484375 218.839844 471.347656 218.59375 470.394531 C 217.945312 467.871094 216.699219 465.503906 214.984375 463.539062 C 213.921875 462.320312 212.394531 461.175781 210.820312 461.5625 C 209.351562 461.929688 208.5 463.515625 208.292969 465.019531 C 207.890625 467.933594 209.203125 470.820312 210.847656 473.253906 C 212.492188 475.691406 214.507812 477.894531 215.820312 480.527344 C 216.964844 482.820312 217.53125 485.351562 218.085938 487.851562 C 218.261719 488.644531 218.425781 489.511719 218.042969 490.226562 C 217.660156 490.9375 216.792969 491.296875 215.988281 491.238281 C 215.179688 491.179688 214.4375 490.765625 213.816406 490.25 C 211.71875 488.515625 210.832031 485.726562 210.292969 483.058594 C 209.753906 480.390625 209.425781 477.601562 208.066406 475.242188 C 207.011719 473.402344 205.382812 471.933594 204.417969 470.042969 C 203.070312 467.394531 203.191406 464.253906 203.59375 461.308594 C 203.996094 458.363281 204.65625 455.398438 204.28125 452.453125 C 204.191406 451.742188 204.027344 451.011719 203.585938 450.449219 C 203.148438 449.886719 202.363281 449.539062 201.695312 449.792969 C 201.132812 450.011719 200.792969 450.578125 200.300781 450.925781 C 198.976562 451.871094 196.988281 450.84375 196.355469 449.34375 C 195.71875 447.847656 196.023438 446.136719 196.339844 444.539062 C 196.679688 442.835938 195.328125 440.929688 194.425781 439.445312 C 193.523438 437.957031 191.851562 436.804688 190.128906 437.042969 C 188.972656 437.207031 187.996094 437.945312 186.953125 438.476562 C 186.410156 438.753906 185.785156 438.96875 185.175781 439.011719 C 199.511719 417.488281 223.277344 403.09375 250.003906 401.199219 C 249.976562 401.214844 249.949219 401.226562 249.921875 401.242188 C 249.132812 401.644531 248.25 401.992188 247.777344 402.742188 C 247.203125 403.648438 247.449219 404.878906 248.039062 405.777344 C 248.628906 406.675781 249.503906 407.339844 250.292969 408.070312 C 252.800781 410.394531 254.507812 413.578125 255.054688 416.957031 " fill-opacity="1" fill-rule="nonzero"/><path fill="#f5cc23" d="M 268.289062 408.039062 C 267.53125 409.171875 266.070312 409.882812 264.757812 409.507812 C 263.265625 409.082031 262.429688 407.5 261.984375 406.011719 C 261.535156 404.523438 261.265625 402.894531 260.234375 401.734375 C 260.007812 401.484375 259.757812 401.261719 259.496094 401.054688 C 260.988281 401.117188 262.488281 401.214844 263.992188 401.355469 C 265.449219 401.488281 266.894531 401.660156 268.328125 401.867188 C 268.609375 402.59375 268.84375 403.335938 268.972656 404.101562 C 269.191406 405.449219 269.050781 406.90625 268.289062 408.039062 " fill-opacity="1" fill-rule="nonzero"/><path fill="#f5cc23" d="M 227.558594 446.085938 C 227.304688 447.289062 227.894531 448.609375 228.933594 449.269531 C 229.972656 449.925781 231.386719 449.90625 232.433594 449.261719 C 233.476562 448.613281 234.121094 447.382812 234.109375 446.152344 C 234.097656 444.777344 233.164062 442.734375 231.574219 442.78125 C 229.914062 442.832031 227.894531 444.46875 227.558594 446.085938 " fill-opacity="1" fill-rule="nonzero"/><path fill="#f5cc23" d="M 257.128906 437.277344 C 257.101562 437.886719 257.070312 438.5 256.890625 439.082031 C 256.714844 439.660156 256.363281 440.214844 255.835938 440.511719 C 254.996094 440.980469 253.867188 440.671875 253.230469 439.949219 C 252.597656 439.230469 252.410156 438.195312 252.550781 437.246094 C 252.6875 436.292969 253.117188 435.410156 253.589844 434.578125 C 254.085938 433.707031 255.738281 430.324219 257 431.445312 C 257.996094 432.332031 257.179688 436.070312 257.128906 437.277344 " fill-opacity="1" fill-rule="nonzero"/><path fill="#f5cc23" d="M 290.730469 408.308594 C 290.429688 408.785156 289.976562 409.191406 289.476562 409.453125 C 288.4375 409.996094 287.234375 410.082031 286.074219 410.257812 C 281.589844 410.929688 277.34375 413.113281 274.183594 416.371094 C 272.234375 416.054688 270.480469 414.800781 270.304688 412.832031 C 270.078125 410.296875 272.039062 408.039062 274.265625 406.808594 C 276.128906 405.777344 278.214844 405.238281 280.191406 404.441406 C 283.816406 405.503906 287.335938 406.800781 290.730469 408.308594 " fill-opacity="1" fill-rule="nonzero"/><path fill="#f5cc23" d="M 269.242188 427.921875 C 269.136719 428.421875 269.355469 429.015625 269.828125 429.214844 C 270.273438 429.402344 270.792969 429.207031 271.152344 428.886719 C 271.511719 428.570312 271.761719 428.148438 272.0625 427.777344 C 272.839844 426.808594 273.8125 426.667969 274.777344 426.035156 C 275.664062 425.457031 275.769531 424.050781 274.503906 423.890625 C 273.515625 423.765625 272.578125 424.929688 271.910156 425.472656 C 271.035156 426.179688 269.5 426.691406 269.242188 427.921875 " fill-opacity="1" fill-rule="nonzero"/><path fill="#f5cc23" d="M 292.785156 413.671875 C 292.652344 413.820312 292.578125 414.007812 292.53125 414.199219 C 292.453125 414.496094 292.429688 414.8125 292.515625 415.105469 C 292.601562 415.402344 292.808594 415.667969 293.09375 415.78125 C 293.347656 415.878906 293.644531 415.847656 293.890625 415.730469 C 294.136719 415.613281 294.339844 415.417969 294.507812 415.203125 C 294.730469 414.910156 294.898438 414.554688 294.855469 414.191406 C 294.820312 413.871094 294.613281 413.578125 294.324219 413.433594 C 294.027344 413.285156 293.761719 413.359375 293.457031 413.410156 C 293.210938 413.449219 292.964844 413.476562 292.785156 413.671875 " fill-opacity="1" fill-rule="nonzero"/></svg>