<svg xmlns="http://www.w3.org/2000/svg" xmlns:xlink="http://www.w3.org/1999/xlink" width="1280" zoomAndPan="magnify" viewBox="0 0 960 599.999999" height="800" preserveAspectRatio="xMidYMid meet" version="1.0"><defs><clipPath id="317406daa5"><path d="M 383.691406 150 L 600 150 L 600 406 L 383.691406 406 Z M 383.691406 150 " clip-rule="nonzero"/></clipPath></defs><g clip-path="url(#317406daa5)"><path fill="#17224d" d="M 399.882812 382.410156 L 430.429688 401.03125 C 431.738281 401.820312 433.097656 402.519531 434.503906 403.128906 C 435.910156 403.734375 437.351562 404.242188 438.824219 404.652344 C 440.300781 405.0625 441.796875 405.371094 443.316406 405.578125 C 444.832031 405.789062 446.355469 405.890625 447.886719 405.890625 C 449.417969 405.890625 450.941406 405.789062 452.460938 405.578125 C 453.976562 405.371094 455.472656 405.0625 456.949219 404.652344 C 458.425781 404.242188 459.863281 403.734375 461.269531 403.128906 C 462.675781 402.519531 464.035156 401.820312 465.347656 401.03125 L 574.46875 336.054688 C 576.398438 334.898438 578.25 333.625 580.015625 332.234375 C 581.78125 330.839844 583.449219 329.339844 585.023438 327.730469 C 586.59375 326.121094 588.058594 324.417969 589.410156 322.621094 C 590.761719 320.820312 591.992188 318.945312 593.101562 316.988281 C 594.210938 315.03125 595.191406 313.007812 596.039062 310.925781 C 596.886719 308.84375 597.597656 306.710938 598.167969 304.539062 C 598.742188 302.363281 599.171875 300.160156 599.457031 297.925781 C 599.746094 295.695312 599.890625 293.457031 599.886719 291.207031 L 599.886719 281.222656 C 599.886719 279.3125 599.742188 277.414062 599.449219 275.527344 C 599.15625 273.640625 598.71875 271.785156 598.136719 269.964844 C 597.554688 268.148438 596.835938 266.382812 595.980469 264.675781 C 595.125 262.96875 594.144531 261.335938 593.035156 259.78125 C 591.929688 258.226562 590.707031 256.765625 589.371094 255.398438 C 588.035156 254.035156 586.605469 252.777344 585.074219 251.636719 C 583.542969 250.492188 581.9375 249.472656 580.25 248.578125 C 578.558594 247.6875 576.8125 246.925781 575.007812 246.304688 L 499.453125 220.292969 C 499.019531 220.144531 498.578125 220.046875 498.121094 220 C 497.664062 219.957031 497.210938 219.96875 496.757812 220.03125 C 496.304688 220.09375 495.863281 220.210938 495.4375 220.378906 C 495.011719 220.546875 494.613281 220.765625 494.238281 221.027344 C 493.863281 221.292969 493.527344 221.59375 493.226562 221.9375 C 492.921875 222.285156 492.664062 222.65625 492.453125 223.0625 C 492.238281 223.46875 492.078125 223.894531 491.964844 224.335938 C 491.851562 224.78125 491.792969 225.230469 491.789062 225.6875 L 491.789062 259.636719 C 491.773438 260.785156 491.847656 261.933594 492.003906 263.074219 C 492.164062 264.214844 492.40625 265.335938 492.730469 266.441406 C 493.058594 267.546875 493.46875 268.617188 493.957031 269.660156 C 494.445312 270.703125 495.007812 271.703125 495.648438 272.664062 C 496.285156 273.621094 496.996094 274.523438 497.769531 275.375 C 498.546875 276.226562 499.378906 277.015625 500.273438 277.742188 C 501.167969 278.46875 502.113281 279.121094 503.105469 279.703125 C 504.097656 280.289062 505.128906 280.792969 506.199219 281.222656 L 518.664062 286.1875 C 519.171875 286.390625 519.640625 286.660156 520.074219 286.996094 C 520.503906 287.332031 520.878906 287.722656 521.199219 288.164062 C 521.519531 288.605469 521.773438 289.085938 521.957031 289.601562 C 522.140625 290.113281 522.25 290.644531 522.285156 291.191406 C 522.316406 291.734375 522.277344 292.273438 522.15625 292.808594 C 522.039062 293.339844 521.847656 293.847656 521.582031 294.328125 C 521.320312 294.804688 520.996094 295.238281 520.609375 295.625 C 520.222656 296.011719 519.792969 296.339844 519.3125 296.601562 L 421.46875 350.785156 C 420.863281 351.128906 420.214844 351.351562 419.523438 351.457031 C 418.835938 351.5625 418.148438 351.546875 417.464844 351.402344 C 416.78125 351.261719 416.144531 351.003906 415.554688 350.628906 C 414.96875 350.257812 414.460938 349.792969 414.039062 349.238281 C 413.621094 348.679688 413.308594 348.070312 413.109375 347.398438 C 412.910156 346.730469 412.835938 346.050781 412.882812 345.355469 C 412.929688 344.65625 413.097656 343.992188 413.386719 343.359375 C 413.675781 342.722656 414.070312 342.160156 414.5625 341.664062 L 438.738281 317.488281 C 440.28125 315.941406 441.65625 314.257812 442.867188 312.441406 C 444.078125 310.625 445.101562 308.707031 445.933594 306.6875 C 446.769531 304.667969 447.394531 302.589844 447.820312 300.445312 C 448.246094 298.304688 448.457031 296.140625 448.453125 293.957031 L 448.453125 179.117188 C 448.453125 178.347656 448.398438 177.585938 448.285156 176.828125 C 448.167969 176.070312 448 175.324219 447.773438 174.59375 C 447.550781 173.859375 447.269531 173.148438 446.941406 172.457031 C 446.609375 171.765625 446.226562 171.105469 445.796875 170.46875 C 445.367188 169.835938 444.890625 169.238281 444.371094 168.675781 C 443.851562 168.113281 443.292969 167.589844 442.691406 167.113281 C 442.09375 166.632812 441.464844 166.199219 440.800781 165.816406 C 440.140625 165.429688 439.453125 165.097656 438.738281 164.8125 L 404.742188 151.320312 C 404.160156 151.089844 403.566406 150.898438 402.960938 150.738281 C 402.355469 150.582031 401.746094 150.460938 401.125 150.378906 C 400.503906 150.292969 399.882812 150.25 399.257812 150.242188 C 398.632812 150.234375 398.011719 150.265625 397.390625 150.332031 C 396.769531 150.402344 396.152344 150.507812 395.542969 150.652344 C 394.9375 150.792969 394.339844 150.972656 393.753906 151.191406 C 393.164062 151.40625 392.59375 151.65625 392.039062 151.941406 C 391.484375 152.230469 390.945312 152.546875 390.429688 152.898438 C 389.914062 153.25 389.417969 153.632812 388.949219 154.042969 C 388.476562 154.453125 388.035156 154.894531 387.617188 155.359375 C 387.199219 155.824219 386.8125 156.3125 386.457031 156.828125 C 386.097656 157.339844 385.773438 157.871094 385.480469 158.425781 C 385.1875 158.976562 384.929688 159.542969 384.707031 160.128906 C 384.484375 160.710938 384.296875 161.308594 384.144531 161.914062 C 383.996094 162.519531 383.882812 163.132812 383.804688 163.753906 C 383.730469 164.375 383.691406 165 383.691406 165.625 L 383.691406 353.59375 C 383.695312 355.035156 383.785156 356.46875 383.972656 357.898438 C 384.15625 359.328125 384.429688 360.738281 384.796875 362.132812 C 385.160156 363.527344 385.613281 364.890625 386.152344 366.226562 C 386.695312 367.566406 387.316406 368.859375 388.023438 370.117188 C 388.730469 371.375 389.511719 372.578125 390.371094 373.734375 C 391.230469 374.890625 392.164062 375.988281 393.164062 377.027344 C 394.164062 378.0625 395.226562 379.03125 396.351562 379.933594 C 397.476562 380.835938 398.652344 381.660156 399.882812 382.410156 Z M 399.882812 382.410156 " fill-opacity="1" fill-rule="nonzero"/></g></svg>