<svg xmlns="http://www.w3.org/2000/svg" xmlns:xlink="http://www.w3.org/1999/xlink" width="1080" zoomAndPan="magnify" viewBox="0 0 810 809.999993" height="1080" preserveAspectRatio="xMidYMid meet" version="1.0"><defs><clipPath id="830b50e918"><path d="M 123.320312 30 L 729 30 L 729 747 L 123.320312 747 Z M 123.320312 30 " clip-rule="nonzero"/></clipPath></defs><g clip-path="url(#830b50e918)"><path fill="#17224d" d="M 168.632812 680.664062 L 254.121094 732.773438 C 255.953125 733.878906 257.824219 734.921875 259.726562 735.898438 C 261.628906 736.878906 263.5625 737.792969 265.527344 738.640625 C 267.492188 739.488281 269.484375 740.269531 271.503906 740.980469 C 273.523438 741.695312 275.5625 742.335938 277.625 742.910156 C 279.6875 743.484375 281.765625 743.988281 283.859375 744.421875 C 285.957031 744.855469 288.066406 745.214844 290.1875 745.503906 C 292.308594 745.792969 294.433594 746.011719 296.570312 746.15625 C 298.707031 746.304688 300.84375 746.375 302.984375 746.375 C 305.125 746.375 307.261719 746.304688 309.398438 746.15625 C 311.53125 746.011719 313.660156 745.792969 315.78125 745.503906 C 317.902344 745.214844 320.011719 744.855469 322.105469 744.421875 C 324.203125 743.988281 326.28125 743.484375 328.34375 742.910156 C 330.40625 742.335938 332.445312 741.691406 334.464844 740.980469 C 336.484375 740.269531 338.472656 739.488281 340.441406 738.640625 C 342.40625 737.792969 344.339844 736.878906 346.242188 735.898438 C 348.144531 734.921875 350.011719 733.878906 351.84375 732.773438 L 657.25 550.917969 C 659.949219 549.304688 662.59375 547.609375 665.183594 545.824219 C 667.773438 544.039062 670.300781 542.175781 672.773438 540.226562 C 675.242188 538.28125 677.644531 536.253906 679.984375 534.152344 C 682.324219 532.050781 684.589844 529.875 686.789062 527.625 C 688.988281 525.375 691.109375 523.058594 693.15625 520.671875 C 695.207031 518.285156 697.175781 515.835938 699.066406 513.324219 C 700.957031 510.808594 702.761719 508.238281 704.488281 505.609375 C 706.210938 502.976562 707.847656 500.292969 709.398438 497.558594 C 710.949219 494.824219 712.410156 492.039062 713.78125 489.210938 C 715.152344 486.378906 716.429688 483.507812 717.617188 480.59375 C 718.800781 477.683594 719.890625 474.734375 720.886719 471.75 C 721.882812 468.769531 722.777344 465.753906 723.578125 462.714844 C 724.378906 459.671875 725.082031 456.609375 725.683594 453.523438 C 726.285156 450.4375 726.789062 447.332031 727.191406 444.214844 C 727.59375 441.097656 727.894531 437.96875 728.09375 434.828125 C 728.292969 431.691406 728.390625 428.550781 728.390625 425.40625 L 728.390625 397.460938 C 728.390625 394.792969 728.289062 392.128906 728.082031 389.46875 C 727.878906 386.808594 727.570312 384.160156 727.160156 381.523438 C 726.75 378.882812 726.238281 376.269531 725.625 373.671875 C 725.011719 371.074219 724.300781 368.503906 723.488281 365.960938 C 722.675781 363.417969 721.765625 360.914062 720.761719 358.441406 C 719.753906 355.96875 718.652344 353.539062 717.457031 351.15625 C 716.261719 348.769531 714.976562 346.433594 713.601562 344.144531 C 712.226562 341.859375 710.765625 339.628906 709.214844 337.457031 C 707.667969 335.28125 706.039062 333.171875 704.324219 331.125 C 702.613281 329.078125 700.824219 327.101562 698.957031 325.191406 C 697.09375 323.285156 695.15625 321.449219 693.148438 319.691406 C 691.140625 317.933594 689.070312 316.253906 686.933594 314.65625 C 684.796875 313.058594 682.597656 311.546875 680.34375 310.121094 C 678.089844 308.691406 675.785156 307.355469 673.425781 306.105469 C 671.066406 304.855469 668.664062 303.699219 666.214844 302.636719 C 663.769531 301.574219 661.28125 300.609375 658.757812 299.738281 L 447.304688 226.9375 C 446.699219 226.726562 446.085938 226.554688 445.460938 226.417969 C 444.839844 226.285156 444.210938 226.183594 443.574219 226.125 C 442.9375 226.0625 442.300781 226.039062 441.664062 226.050781 C 441.027344 226.066406 440.390625 226.117188 439.757812 226.207031 C 439.125 226.296875 438.5 226.421875 437.882812 226.585938 C 437.265625 226.75 436.660156 226.945312 436.070312 227.183594 C 435.476562 227.417969 434.898438 227.6875 434.335938 227.988281 C 433.773438 228.292969 433.234375 228.628906 432.710938 228.996094 C 432.1875 229.363281 431.691406 229.761719 431.214844 230.1875 C 430.742188 230.613281 430.292969 231.066406 429.871094 231.546875 C 429.449219 232.027344 429.058594 232.527344 428.695312 233.054688 C 428.335938 233.582031 428.007812 234.125 427.710938 234.691406 C 427.414062 235.257812 427.148438 235.835938 426.921875 236.433594 C 426.695312 237.03125 426.5 237.636719 426.34375 238.257812 C 426.1875 238.875 426.070312 239.5 425.988281 240.132812 C 425.90625 240.765625 425.863281 241.402344 425.855469 242.042969 L 425.855469 337.046875 C 425.835938 338.65625 425.875 340.261719 425.976562 341.867188 C 426.074219 343.476562 426.234375 345.074219 426.457031 346.667969 C 426.675781 348.261719 426.957031 349.847656 427.296875 351.417969 C 427.636719 352.992188 428.035156 354.550781 428.492188 356.09375 C 428.949219 357.636719 429.464844 359.160156 430.035156 360.664062 C 430.605469 362.167969 431.234375 363.648438 431.917969 365.109375 C 432.597656 366.566406 433.335938 367.996094 434.125 369.394531 C 434.917969 370.796875 435.757812 372.167969 436.652344 373.507812 C 437.546875 374.84375 438.488281 376.148438 439.480469 377.414062 C 440.46875 378.683594 441.507812 379.910156 442.59375 381.101562 C 443.675781 382.292969 444.804688 383.4375 445.972656 384.542969 C 447.144531 385.648438 448.351562 386.707031 449.601562 387.722656 C 450.851562 388.734375 452.140625 389.699219 453.460938 390.617188 C 454.785156 391.535156 456.136719 392.402344 457.527344 393.214844 C 458.914062 394.03125 460.328125 394.792969 461.773438 395.5 C 463.21875 396.210938 464.6875 396.863281 466.183594 397.460938 L 501.074219 411.359375 C 502.492188 411.925781 503.804688 412.679688 505.011719 413.621094 C 506.21875 414.5625 507.269531 415.652344 508.164062 416.890625 C 509.0625 418.128906 509.769531 419.46875 510.285156 420.910156 C 510.800781 422.351562 511.105469 423.832031 511.199219 425.359375 C 511.296875 426.886719 511.175781 428.394531 510.84375 429.886719 C 510.507812 431.382812 509.972656 432.796875 509.238281 434.136719 C 508.503906 435.480469 507.59375 436.691406 506.515625 437.773438 C 505.433594 438.855469 504.226562 439.769531 502.886719 440.507812 L 229.050781 592.152344 C 228.207031 592.625 227.324219 593.023438 226.410156 593.335938 C 225.496094 593.652344 224.558594 593.886719 223.601562 594.03125 C 222.644531 594.179688 221.683594 594.242188 220.714844 594.214844 C 219.746094 594.191406 218.789062 594.078125 217.839844 593.882812 C 216.894531 593.683594 215.96875 593.402344 215.074219 593.039062 C 214.175781 592.675781 213.316406 592.234375 212.5 591.71875 C 211.679688 591.199219 210.914062 590.613281 210.203125 589.957031 C 209.488281 589.304688 208.839844 588.589844 208.257812 587.816406 C 207.671875 587.046875 207.160156 586.226562 206.722656 585.363281 C 206.285156 584.5 205.929688 583.605469 205.652344 582.675781 C 205.375 581.75 205.183594 580.804688 205.078125 579.839844 C 204.96875 578.878906 204.949219 577.914062 205.015625 576.949219 C 205.082031 575.984375 205.234375 575.03125 205.472656 574.089844 C 205.710938 573.152344 206.03125 572.242188 206.429688 571.363281 C 206.832031 570.480469 207.308594 569.640625 207.859375 568.847656 C 208.414062 568.050781 209.03125 567.3125 209.714844 566.628906 L 277.382812 498.960938 C 279.535156 496.800781 281.574219 494.542969 283.507812 492.183594 C 285.4375 489.824219 287.246094 487.375 288.9375 484.839844 C 290.628906 482.300781 292.1875 479.6875 293.621094 476.996094 C 295.054688 474.308594 296.355469 471.550781 297.519531 468.734375 C 298.679688 465.917969 299.703125 463.050781 300.585938 460.132812 C 301.46875 457.210938 302.203125 454.257812 302.796875 451.269531 C 303.386719 448.277344 303.832031 445.265625 304.128906 442.230469 C 304.425781 439.195312 304.570312 436.15625 304.570312 433.105469 L 304.570312 111.695312 C 304.570312 109.546875 304.410156 107.414062 304.09375 105.292969 C 303.773438 103.171875 303.300781 101.085938 302.667969 99.039062 C 302.039062 96.988281 301.261719 94.996094 300.332031 93.0625 C 299.402344 91.128906 298.335938 89.273438 297.132812 87.5 C 295.925781 85.726562 294.597656 84.050781 293.140625 82.476562 C 291.6875 80.898438 290.121094 79.441406 288.449219 78.097656 C 286.773438 76.757812 285.011719 75.546875 283.15625 74.46875 C 281.300781 73.390625 279.375 72.457031 277.382812 71.667969 L 182.226562 33.90625 C 181.414062 33.585938 180.59375 33.289062 179.761719 33.015625 C 178.933594 32.746094 178.09375 32.5 177.25 32.277344 C 176.402344 32.058594 175.550781 31.863281 174.695312 31.691406 C 173.835938 31.523438 172.976562 31.382812 172.109375 31.265625 C 171.242188 31.148438 170.375 31.058594 169.503906 30.992188 C 168.632812 30.929688 167.757812 30.894531 166.886719 30.882812 C 166.011719 30.871094 165.136719 30.886719 164.265625 30.929688 C 163.390625 30.972656 162.519531 31.042969 161.652344 31.140625 C 160.785156 31.234375 159.917969 31.355469 159.058594 31.503906 C 158.195312 31.652344 157.339844 31.828125 156.492188 32.027344 C 155.640625 32.230469 154.796875 32.457031 153.960938 32.707031 C 153.121094 32.957031 152.292969 33.234375 151.472656 33.539062 C 150.65625 33.839844 149.84375 34.167969 149.042969 34.519531 C 148.246094 34.871094 147.457031 35.246094 146.679688 35.648438 C 145.902344 36.046875 145.136719 36.46875 144.386719 36.914062 C 143.636719 37.363281 142.898438 37.832031 142.175781 38.320312 C 141.453125 38.8125 140.746094 39.324219 140.054688 39.859375 C 139.363281 40.394531 138.6875 40.949219 138.03125 41.523438 C 137.371094 42.097656 136.730469 42.695312 136.109375 43.308594 C 135.488281 43.921875 134.886719 44.554688 134.304688 45.207031 C 133.71875 45.855469 133.15625 46.523438 132.617188 47.210938 C 132.074219 47.894531 131.550781 48.597656 131.050781 49.3125 C 130.550781 50.03125 130.074219 50.761719 129.621094 51.507812 C 129.164062 52.253906 128.734375 53.011719 128.324219 53.785156 C 127.914062 54.558594 127.53125 55.339844 127.167969 56.136719 C 126.808594 56.933594 126.472656 57.738281 126.160156 58.554688 C 125.847656 59.371094 125.558594 60.195312 125.296875 61.03125 C 125.035156 61.863281 124.800781 62.707031 124.589844 63.554688 C 124.378906 64.402344 124.195312 65.253906 124.035156 66.113281 C 123.878906 66.972656 123.746094 67.835938 123.640625 68.703125 C 123.535156 69.570312 123.453125 70.441406 123.402344 71.3125 C 123.347656 72.1875 123.320312 73.058594 123.320312 73.933594 L 123.320312 600.007812 C 123.324219 604.039062 123.582031 608.058594 124.101562 612.058594 C 124.617188 616.058594 125.386719 620.007812 126.410156 623.910156 C 127.429688 627.8125 128.699219 631.632812 130.210938 635.371094 C 131.71875 639.109375 133.464844 642.738281 135.4375 646.253906 C 137.414062 649.773438 139.605469 653.148438 142.015625 656.382812 C 144.421875 659.621094 147.027344 662.6875 149.824219 665.589844 C 152.625 668.496094 155.601562 671.207031 158.746094 673.730469 C 161.894531 676.25 165.191406 678.5625 168.632812 680.664062 Z M 168.632812 680.664062 " fill-opacity="1" fill-rule="nonzero"/></g></svg>